/* XPM */
static char *_614250846990[] = {
/* columns rows colors chars-per-pixel */
"220 24 245 2 ",
"   c #010102",
".  c #00010B",
"X  c #000013",
"o  c #00001D",
"O  c #000023",
"+  c #00002B",
"@  c #000134",
"#  c #00003C",
"$  c #3B2624",
"%  c #4E3219",
"&  c #6F3614",
"*  c #49372B",
"=  c #523A30",
"-  c #603924",
";  c #4B1626",
":  c #4B4337",
">  c #574437",
",  c #54412D",
"<  c #784627",
"1  c #6E4D33",
"2  c #7F4311",
"3  c #010147",
"4  c #010254",
"5  c #00015D",
"6  c #08065A",
"7  c #353447",
"8  c #000064",
"9  c #00006B",
"0  c #08076C",
"q  c #010174",
"w  c #02027C",
"e  c #080679",
"r  c #0F1273",
"t  c #1E2079",
"y  c #383C6C",
"u  c #25277C",
"i  c #3B3E74",
"p  c #282C6B",
"a  c #583E51",
"s  c #653C4C",
"d  c #3D4268",
"f  c #3D4376",
"g  c #3C4454",
"h  c #4A4847",
"j  c #534846",
"k  c #44455A",
"l  c #484857",
"z  c #594756",
"x  c #494964",
"c  c #45477B",
"v  c #4A5162",
"b  c #624949",
"n  c #803E14",
"m  c #914F13",
"M  c #B05A0E",
"N  c #8E552E",
"B  c #AF672D",
"V  c #A66026",
"C  c #CD762F",
"Z  c #E87615",
"A  c #8D5C43",
"S  c #91644F",
"D  c #AC7758",
"F  c #B0724F",
"G  c #B17B65",
"H  c #986D66",
"J  c #C37B55",
"K  c #B7845E",
"L  c #B48769",
"P  c #C9865A",
"I  c #C88C66",
"U  c #D89A77",
"Y  c #D1926D",
"T  c #E49D75",
"R  c #E5996B",
"E  c #E9A37A",
"W  c #F2A67A",
"Q  c #D5A47A",
"!  c #E28122",
"~  c #030284",
"^  c #090584",
"/  c #04038C",
"(  c #08058C",
")  c #0A0A8C",
"_  c #080A87",
"`  c #030294",
"'  c #090493",
"]  c #0C0C94",
"[  c #03019C",
"{  c #09049C",
"}  c #0C0C9C",
"|  c #070997",
" . c #100D9A",
".. c #0E1194",
"X. c #0E1199",
"o. c #121494",
"O. c #13149B",
"+. c #181B99",
"@. c #0F138C",
"#. c #1E229C",
"$. c #242684",
"%. c #25289E",
"&. c #313697",
"*. c #0301A4",
"=. c #0904A3",
"-. c #0C0BA3",
";. c #0401AA",
":. c #0904AA",
">. c #0C0BAB",
",. c #060AA1",
"<. c #110EA6",
"1. c #1B1DA4",
"2. c #1C1BAC",
"3. c #1414A7",
"4. c #0401B1",
"5. c #0806B2",
"6. c #1C1CB5",
"7. c #0E10A1",
"8. c #231FAA",
"9. c #1E23A4",
"0. c #2224A3",
"q. c #262AA4",
"w. c #2424AB",
"e. c #2A2BAB",
"r. c #292AA7",
"t. c #2D32A7",
"y. c #3537A7",
"u. c #2524B4",
"i. c #2B2CB2",
"p. c #2828BA",
"a. c #3738B9",
"s. c #2F30B7",
"d. c #3C41BA",
"f. c #3C40AE",
"g. c #474684",
"h. c #545289",
"j. c #50518D",
"k. c #4C4CAB",
"l. c #4849A7",
"z. c #4448BC",
"x. c #5253B0",
"c. c #6D72B4",
"v. c #5B64A1",
"b. c #2C2BC2",
"n. c #3333C3",
"m. c #3B3DC4",
"M. c #3D3DCB",
"N. c #3432CB",
"B. c #3A3AD1",
"V. c #302FC8",
"C. c #403ECA",
"Z. c #3E41C4",
"A. c #3E44C7",
"S. c #4344C4",
"D. c #4A4CC5",
"F. c #4444CC",
"G. c #4A4BCC",
"H. c #454AC8",
"J. c #4D51C8",
"K. c #5658CB",
"L. c #474AD3",
"P. c #4A4BD3",
"I. c #4546DB",
"U. c #4B4BDC",
"Y. c #4746D7",
"T. c #4F51D9",
"R. c #5B5DDA",
"E. c #5558D5",
"W. c #504DDA",
"Q. c #5E61D9",
"!. c #5F62CE",
"~. c #656AC7",
"^. c #6567D9",
"/. c #7779D8",
"(. c #7378D0",
"). c #4A47E4",
"_. c #4B4AE3",
"`. c #4947E8",
"'. c #5A5BE7",
"]. c #5351F6",
"[. c #625FF1",
"{. c #5F62E6",
"}. c #6669E9",
"|. c #6D72E8",
" X c #777AE9",
".X c #6869F6",
"XX c #6E72F3",
"oX c #7274F4",
"OX c #7C7CFE",
"+X c #777AF7",
"@X c #726EF6",
"#X c #817DFF",
"$X c #7E82D0",
"%X c #7D81FE",
"&X c #7E84F5",
"*X c #7C82EA",
"=X c #D8A78E",
"-X c #F9B48A",
";X c #FCBB94",
":X c #E9AE8D",
">X c #DBA7A3",
",X c #FEC59A",
"<X c #FFC28D",
"1X c #FEC6A2",
"2X c #FED3AB",
"3X c #FFD4B5",
"4X c #FFCBB3",
"5X c #888BD7",
"6X c #8285E7",
"7X c #8C93E4",
"8X c #9599E5",
"9X c #8284FE",
"0X c #858AFE",
"qX c #8B8DFF",
"wX c #868AF5",
"eX c #8D92FF",
"rX c #8C90F4",
"tX c #9395FF",
"yX c #9599FF",
"uX c #9A9CFF",
"iX c #9896FC",
"pX c #9DA1FF",
"aX c #9CA1ED",
"sX c #A4A9EC",
"dX c #A3A5FF",
"fX c #AAABFE",
"gX c #A5A9FD",
"hX c #ACB2FE",
"jX c #AFB4F6",
"kX c #B2B4FF",
"lX c #B8BCFD",
"zX c #B1B7E9",
"xX c #A4A8E5",
"cX c #BCC2FF",
"vX c #FFE3C8",
"bX c #C6CBFF",
"nX c #CACDFF",
"mX c #C2C5FF",
"MX c #CDD3FF",
"NX c #CFD9FF",
"BX c #D1D5FF",
"VX c #D4DAFF",
"CX c #D9DDFF",
"ZX c #D6E0FF",
"AX c #BA8D90",
/* pixels */
"z.K.E.a.A.d.d.S.A.A.a.S.m.F.C.C.B.M.S.d.d.f.S...J.J.E.J.E.J.E.A.F.m.B.F.a.d.A.A.Z.A.F.Z.d.d.A.A.m.S.d.A.F.m.Z.Z.Z.Z.A.A.M.A.A.m.C.w.d.J.J.S.F.M.m.S.d.Z.Z.Z.Z.d.d.A.G.G.P.I.).A.U.t.k.v.v.h.j.j.j.j.j.j.h.h.h.h.c h.h.h.h.v.j.x.j.l.!.E.U.Y.Y.T.H.A.G.G.L.L.P.G.G.G.G.D.G.G.P.P.G.G.F.L.P.+.E.R.'.'.T.G.D.S.G.G.P.W.Y.P.P.P.G.G.G.Z.T.L.H.G.P.e.D.^.R.Q.E.+.K.!.Q.Q.R.Q.R.R.E.R.P.P.P.P.P.G.D.D.G.L.P.L.I.Y.L.G.Y.P.Y.L.G.F.P.L.L.P.Y.Y.L.H.G.H.P.L.F.+.",
"^.o.) O.9.#.+.q.....0.9.O.X.O.w.u.| ] q.#.o.../ Q.#.@.........X.} -.,.} +.q.+.] +.1.X.+.#.#.7.,.q.9.o.) X.i.9.] ..| | ,.,.-.} ] O.~ ^.+.o.w.w.} +.w.+.9.#.e.9.) %.q.] X.8.8.| } X.@.v.h.f d v v l z a z s s s s a s z z v v c g.g.$.y.+.e.+.w.O.o.9.i...O.1.1.....w.o.#.r.r.i.+.q.%.9.e.) / ^.o.O. .O.9.#.o.) r.+.w.e.O.r.o.e.q.o.+.9.+.] ] X.( }.o.] O...~ ^.o.X.X.....O.X.....}  . . .} } X.X.X.} } } 7.<.} 7.} } } 7.} X.} } -.-.-.<.} } X.X.} ] X.~ ",
"{./ | '.uX0XH.yX| u.%XyXF. .E.tX}.O.a.0XeXa.` ` {.` ` [ | ,.[ [ ` ,.,.3.+XtX'.s.%X%Xm.L.yXoX9.i.0X%XL.3.}.uX.X[ [ | [ *.*.;.[ [ { ` }.~ ) OXXX) O.pXq.yXA.&XXXi.#XpXi.R.iX@Xn.[ ` ^ ~.c k l j , N V B B B C B C C C V < : l v g x u t.9.eXt.pXH.f.0XyXO.2.@X9X1.X.uXA.XXuXuXeXJ.wX|.^.9X( ` }.` ` | 9.9XXX] q.uX'.uXdXq.uXE.uXyXq.G.tXOX2.{ ` [ {. .` ` ` ` [.` [ ` [ [ *.*.` | ` [ [ [ *.;.*.*.[ [ [ [ { *.*.*.[ [ [ [ [ [ [ [ [ [ { [ [ [ *.*.*.[ | / ",
".X` 3.qXG.q.d.tX| T.eX}.#Xi.iX|.eXa.%X&XoX%X[ [ ].[ ,.*.*.;.*.*.=.[ =.%XyXz.%XOXqXOX'.tXXX0XE.}.0XQ.eXi.yXa.6.*.[ [ [ *.;.;.*.*.[ [ U. .' %X@X` 1.uXr.tXE.%X+XQ.qXr.C.iXQ.#XC.[ | _ x.h.l j , < m M m M M M M M Z ! ! V - j h l d u r.9.pX%.yXx.&X&X9.7.F.pXeXi...pXn.9.E.pXs.o.+X|./.0X' ` [.[ :.` '.pX0X+.0.iX9XiXuXy.iXqXuXpXq.yXXX0X_.[ *.[ '.=.{ [ [ ` [.*.[ *.*.*.;.;.*.[ [ [ *.;.5.;.;.*.*.*.*.*.*.*.;.*.[ [ *.*.;.*.:.*.*.*.*.*.*.*.;.;.:.*.` / ",
"_.| 7.pXP.9.S.uX) '.0Xd.pX9.pXt.tXJ.*X&X}.L.| *.].*.*.;.;.;.*.;.[ [ -.XXyX0X#.+X%X) ] tXD.&X}.oX&XE.'.s.pXd.3.*.*.[ [ *.;.;.*.[ *.*.).` ( 9X@X` 3.pXt.eXH.%X&XQ.qXr.D.qXuXz.` [ [ / z.g.a : % V m m n m m m n m M ! ! B 1 : : h d $.w.3.uXz.uXz.*X+Xu.<..X'.tXz.X.uXm./ d.uX] / wX X^.tX( ` ).=.*.>.oX}.eXe.1.yX0XtXdX%.uXwXrXgX&.yXD.0X.X` [ ` '.[ [ *.` ` [.*.*.:.=.*.:.*.*.:.*.*.*.;.;.;.*.*.;.;.*.[ [ [ *.*.[ *.*.;.;.*.*.*.*.*.[ [ *.*.4.4.4.*.[ ` ",
").[ O.yX}.m.S.yX..R.eXt.eXf.pX#.yXJ.&XpXyXZ.[ [ I.*.*.;.5.;.;.*.[ ,.,.X.|.pX*X%X%X~ X.tXH.qX}.|.pXpXA.i.yX!.n.*.[ [ ,.*.*.*.[ [ :.` ).-.` #XXX_ 9.yXt.yXJ.&X*X^.tXz.o.D.iXyXA.[ =./ k.g.x j % N m m F A N N & & m C M m 1 : h v y t u.6.uXQ.yXx.6X&XY.6.OXw.yXE...yXA./ z.uX-.` wXwXwX0X~ / `.*.*.6.%Xu.uXH.9.9X0XoXtX&.qXrX XuXt.eXz.%XXX| ` [ B.,.*.,.` ~ _.*.;.;.*.:.*.*.:.:.*.;.;.;.;.*.*.*.;.;.*.*.*.*.[ *.*.*.;.;.*.[ *.*.*.*.*.[ *.*.;.4.;.;.| / ",
").` o.pXn./ H.yXX.L.yX}.pXi.%XXXpXd.&X0X%XXX| [ ).*.;.*.[ *.[ *.*.[ [ %XJ.qXeXeXeX{.9.9XoXeX}.|.eX|.%Xt.pX#.7.[ *.*.;.;.;.;.;.*.[ [ ).-.~ %X+X@.#.pXa.&X*XyX}.{.qXo.C.+XR.iX'.[ [ / k.g.x h $ 1 F R -XW T J F V M C R A , , h g y u w.6.uXq.uXz.wX X3.<.0X&XeX+Xq.pXA...z.eX3.[ OX|.^.0X~ / ).*.[ u.eX%XeXXX0.^.OXi.dXy.|.+Xy.uXt.%X&XeX{.| ` ` `.>.;.;.` / _.*.*.*.;.;.*.*.*.*.;.;.;.*.;.;.;.;.;.*.*.*.;.*.*.*.*.;.4.;.` ` *.:.;.;.*.*.*.*.*.*.;.*.[ / ",
"_.` ..pXn.[ A.pXpXXXXXeX+X9.'.eX0Xa.0XXX{.qX` ` _.` *.*.*.*.[ [ *.*.,..X0XeX'.s.%XyXyXT.eXeXG.XX&XA.eXi.pXpX.X*.*.;.4.;.;.;.;.*.*.[ ).` ] 9XtXpX}.yX9.T.eX%Xn..XuXiX@XqXiXeXp.[ [ ( k.g.a l $ 1 Y -X;X;X1X-XT J R P ,XK % , h l c u 6.6.yXi.uXD.&XpXiXb.tXr.9.eXw.uXuXeX+XpX=.*.%X X}.0X/ / _.[ ,.p.eX1.Z.0Xs.T.OXs.uXe.}.|.s.uXu.T.9XeX_.[ [ [ _.*.;.;.` ~ I.[ [ *.;.;.;.*.*.[ ` ( [ *.*.;.*.*.*.*.*.*.*.*.` ` ` ` ` / q q ~ ( { =.*.:.*.[ [ *.*.*.| / ",
"`.[ | n.>.,.3.V.N.6.9.b.u.[ 7.V.p.3.b.u.p.p.` ` _.*.*.*.*.*.*.*.*.*.*.-.p.b.[ [ 6.p.V.-.b.V.,.p.A.3.N.>.n.a.b.*.*.*.;.;.*.*.*.*.[ [ ).[ X.u.n.n.6.V.3.| V.p.[ u.n.n.3.b.V.b.[ *.[ ~ k.c l h * 1 Q :X2X3X;X1X-XJ :X4X1XL % , j l i $.u.>.V.7.N.2.p.n.N.>.N.<. .N.-.n.a.s.e.n.:.*.s.u.u.s.` ` `.*.*.>.N.5.3.N.<.6.b.>.V.3.p.u.3.N.<.{ b.b.*.,.` [ _.*.;.*.` ~ _.[ *.[ *.;.*.*.;.' 5 6 w ' =.=.{ [ | { [ { =.` e 0 0 0 6 3 + + # 6 q ( =.*.*.*.[ *.*.*.` ~ ",
"`.;.[ -.[ [ >.*.;.[ [ | / / [ [ *.[ *.*.[ [ ` ` ).*.*.*.;.*.*.;.;.*.;.*.;.:.[ ;.[ [ ;.[ *.*.[ ` | ,.[ *.` / O.,.[ >.[ ` 6.| [ [ { [ ).*.[ ,.,.*.*.*.*.*.[ ` ` / ` *.*.;.*.*.*.*.[ _ k.g.k > % A L , 1 L :X:X=XJ S 1 =XK % > j l y $.2.*.{ ` / | | [ =.{ 2. .` [ { ' 8.^ ( ` 2.p.{ 3.w.` ` [ `.;.*.:.;.*.*.[ *.[ ` ` =.[ [ { `  .} ` { [ >.*.{ ` U.[ ,.*./ ~ I.[ [ *.*.;.;.*.{ q @ + 3 9 e e 0 0 q q q e q 8 3 # # @ O X .   X O # 8 ~ [ *.*.*.[ *.*.` ~ ",
"`.;.*.` *.*.,.*.*.;.>.[ 9.E.m.` *.;.*.*.*.[ | ` ).*.*.;.4.;.;.;.;.;.;.*.*.;.;.:.*.{ *.*.*.*.*.p.E.t.} [ ' s.uX/.] ` [ L.fX~.( [ [ ` ).:.;.*.*.*.;.5.*.7.D.!.~.f.} [ *.;.[ [ *.*.[ _ k.f l * G N H H $ - n J N & ; s G L 1 b > l x t w.` [ s.E.s.[ [ ` a.fX^.( '  .F.fXK.~ ( kXlXr.oXlX#./ ` `.;.;.*.[ ` [ [ *.[ q.K.i.` [ ` @.uXoX( [ =.*.*.` ` Y.] ` / _ ~ I.[ *.;.;.;.*.{ q 3 o . X o @ + o X o o o O o X X X X X             X + 9 ( [ *.[ *.;.*.` ~ ",
"].;.,.[ >.[ *.*.:.*.*.` |.bX%X` [ *.;.;.*.[ / / _.[ *.*.;.;.4.;.*.*.*.*.;.;.;.*.*.*.*.*.:.*.[ XXnX X` | r.dXVXMXwX( G.dXMXMX^.( ` / _.;.;.;.;.;.5.;.;.u.cXnXBXbX9.*.;.;.*.[ ;.,.[ ~ k.c h $ D F >X>XAX=X=X-X=X=XAXAX1XI A > : l y u 9.,.` OXnX!.| ` d.dXnXCX X^ D.kXBXmX^.w gXlXy.kXdXo./ / ).*.*.[ ,.` [ >.*.` rXBXE.' ' ) gXMXBX X/ [ *.[ { / +.~ / / w q T.[ *.;.;.*.*.| q 3 @ O o O + + O o O O O o .                       X + 8 / =.*.[ *.*.[ / w ",
"].4.[ ` ,.*.*.*.*.;.:.| 6XVX6X/ [ *.*.*.*.{ / ~ ).[ *.*.;.;.;.*.*.*.[ *.*.*.;.*.,.[ *.*.*.[ | uXVX/.( ` /.nXlXcXnX(.8XNXsXbXMXl.^ / U.,.,.*.*.;.*.5.*.b.uXJ.6XBX1.[ *.*.*.{ [ :.{ ~ l.f l * Y E 4X4XvX4X:X,X,X1XvXvX2X:X=X, h v y u 2.*.~ fXVX^.' e #XBXkXlXnX~.sXBXaXnXnXy.' ( y.mX}.( _ w U.[ *.*.[ *.{ [ *./ fXBXE./ ~ tXVXaXcXmXS.{ *.:./ / '.}..X{.'.9.I.*.*.;.*.*.;.*.` ~ ( ( e e ^ ( ^ ^ w ^ ^ 0 @ o o o .   .         . @ 4 ~ *.;.;.*.,.*.` ~ w ",
"`.;.[ [ *.;.*.;.*.*.*./ 8XZX6X/ [ *.*.;.*.[ / ~ U.*.[ *.*.;.*.*.*.*.*.*.*.*.;.*.*.*.*.*.[ [ / yXVX(.( ' #XBXsXsXCXc.xXCX$XlXCXk.w / U.[ [ *.;.;.*.*.[ 3.n.a.dXkXO.*.*.;.:.:.*.{ [ ~ l.g.v : G J ;X4X;XR F Y K Q 1X4X;XI L > h g d u u.[ ( dXBX~./ 0 5XCX8XlXBXc.zXCXc.bXCXy.` { uXcXF.` _ w Y.[ *.*.*.;.*.[ :.' fXVX^./ ~ uXCXc.jXMXJ.[ [ :.{ ` '.| [ [ ` / ).*.*.*.*.*.;.;.*.:.4.;.*.*.*.*.*.*.:.=.:.' 5 # # @ O o . .       o 6 0 ' *.;.;.*.*.[ [ ~ q ",
"`.[ *.*.*.*.;.;.*.:.:./ 7XMX*X( [ *.;.:.*.[ / ~ ).*.*.[ *.*.*.*.*.*.*.*.;.;.*.*.*.:.;.*.*.[ ~ yXMX5X' ` 5XCX5X5XCX5XzXVXc.kXVXl.( ` I.,.*.*.*.;.*.[ :.` a.hXgX$.| [ 4.4.*.*.*.=.[ ~ k.g.l : % K U -X;X-XE P E -X;X;XE Y < > h v f $.8.=.~ pXBX~.' ( xXBX#XaXCXc.zXCXv.kXBXl./ 2.pXfX3.` / ~ _.;.*.;.;.;.*.*.:.` fXZXK./ ) iXnXc.xXCX!.` [ [ { / .X[ *.*.[ ` ).*.*.*.*.:.*.*.*.*.;.;.[ *.[ *.;.;.*.*.4.:.~ 9 3 3 3 + X         o 6 ^ { ;.;.;.;.*.;.[ / ~ ",
"`.[ ;.*.;.;.5.;.;.;.[ ' 7XVXwX~ { *.4.;.;.*.` ~ ).*.[ *.*.*.*.[ *.;.;.*.*.;.*.;.;.*.;.*.*.` _ yXCX/.{ ' /.CX8XxXCXc.zXVXc.fXBXx./ ` I.*.*.*.*.;.*.;.*.[ ' &XnXgXi.[ *.;.*.=.:.[ { w k.f l : , K :X-XW R W E E E T ,XW U - > h g i $.8.` ) gXMXc./ ) 8XCXc.jXCXv.zXBXj.mXBXy.' P.mX*X' { / ~ `.;.*.:.;.;.;.*.:.` hXNX!.( / OXBXcXMXVXE.' [ *.` ` _.>.*.*.*.[ `.;.:.*.*.;.:.*.:.*.:.;.*.*.*.*.*.*.*.*.;.;.[ ( e 0 0 4 + .       X 4 w ' *.;.;.*.*.;.*./ ~ ",
"_.[ ;.4.;.;.;.;.*.*.;.( 7XVX*X/ [ ;.;.;.;.=./ ~ I.*.*.*.;.;.*.*.*.;.*.*.;.*.;.;.;.;.;.*.[ ` ) yXCX/.' '  XVXsXxXCX5XsXCX5XlXBXx.~ / Y.} *.*.*.;.;.;.5.*.` q.rXMXpX/ [ *.;.*.;.*.[ ~ k.c a a : L -X-XW R W -X-XR E <X-X=X$ : h l i $.8.[ ( dXBX~./ / 8XVX8XhXVXc.jXCXc.mXBX&.) .XmXa.' { ~ w ).*.*.*.*.*.;.;.:.` jXZXK.( [ p.gXuXlXMXK.[ *.*.{ ` `.;.;.*.;.[ `.*.;.*.;.;.*.*.;.;.;.;.;.;.*.;.;.;.*.;.;.;.*.` ` ` ( 0 3 o       X # 9 ' :.:.;.*.[ *.*./ ~ ",
"U.*.;.4.;.;.:.*.*.*.;./ 7XVX6X) [ *.;.;.;.:.( ~ U.*.*.*.;.;.*.*.*.*.;.*.*.*.*.*.4.;.;.;.[ ` ( eXBX/.' ' K.bXjXcXCXc.#XBXaXmXCXx./ ` I.{ *.*.*.;.;.;.;.*.o._ l.BXlX/ ` { [ *.5.*.{ ~ l.c k h : S :X<X-X<X-XE E -X;X,X-X=X* h h l f $.w.[ ' dXVX~.( / ^.nXhXcXNXc.5XBX8XnXMXl.%.kXpX) ' ' ~ ~ ).*.*.*.*.*.;.;.;./ hXVXK.` =.[ 3.q.jXbXZ.[ ;.>.` / A.,.,.,.[ ` `.*.*.;.*.*.;.;.*.*.*.;.;.;.;.;.;.*.*.*.;.*.*.*.:.;.=.^ 4 +       . + 5 / :.;.*.*.*.*.[ / ~ ",
"U.[ ;.;.*.*.*.*.[ [ *.' 8XMX X( [ [ ;.*.:.[ ~ w U.[ *.[ *.*.[ [ *.:.*.*.*.*.*.*.;.*.*.[ ` ` ( uXVX(.' [ w.rXVXMXCX(.y.iXnXBXBXz.` [ I.,.*.5.*.*.*.*.*.2.qXK.l.MXXX` { [ *.*.*.*.` w k.c l j * b K :X,X2X,X-X;X,X3X-X:X=X* h h v y $.u.{ / dXVX~./ { q.iXMXMXMX~.f.fXbXBXBXy.y.bXJ.D.G.@./ ~ I.*.*.[ *.*.*.:.:./ hXMX~.' ` *.` e.mXiXO.*.*.[ ` ` I.[ [ ` ` / _.[ *.*.*.*.*.*.*.*.*.*.*.*.*.*.*.*.*.*.*.*.*.;.4.;.:.' 8 @ X     X + 5 ( [ [ [ [ [ ;.{ ( w ",
"_.[ *.;.*.*.*.*.[ :.*./ rXVX9X/ | *.*.;.*.[ ~ w U.*.[ *.;.*.*.{ *.=.*.*.[ *.*.*.*.;.*.[ { ` / tXBX/.' :.=.0.7XVXhXk.' s.fXBXfX0.' ` U.*.;.;.*.*.[ *.;.2.pXnXjX^...{ [ *.>.*.*.*.' e k.c k j = 1 1 F I Y Y F I Y T D Q >X: h h k i $.1.[ ` fXVX~.` *.{ %.pXCXfXm.' s.kXnXiX%.iXkX%.nXnX%.~ / ).*.*.*.[ *.*.*.=.` gXVXE./ [ ,.' E.bX X' *.:.*.[ / U.,.[ ` / / I.[ [ *.*.*.*.*.*.*.*.*.*.*.*.*.*.*.*.*.;.;.*.;.;.;.;.[ w 4 @ O + @ 4 9 ` =.*.=.[ *.*.[ ( w ",
"_.,.;.;.;.*.*.;.:.*.=.{ |.gX}.{ [ *.:.:.*.[ ( ~ ).*.*.*.;.;.*.:.*.;.*.*.[ *.*.*.[ ;.:.*.[ ` { OXfXQ.*.;.;.{ w.OXW.[ *.[ i.0Xn.' ` / U.[ ;.;.*.*.*.*.*.*.s.#X#X( ` *.*.;.;.*.*.[ ' q k.c k h : 1 < 2 & & & < N N S G :X>X= g h l y $.w.{ ' #XdXJ.[ :.*.[ q.#XY.=.*. .a.#Xa.{ qXR.O.#XqXo.^ ( I.*.*.*.*.*.*.;.:.[ qXfXS.` :.[ [ W.dXa.` 5.:.[ =.` ).*.*.| ' / U.*.:.*.;.*.*.*.:.*.*.*.*.*.*.*.*.*.;.;.;.;.*.*.*.*.;.*.{ / w ^ ^ ( ~ ( =.;.:.;.;.*.*.` ~ q ",
"`.,.*.*.[ [ [ { [ [ { / _ ^ / { ` [ [ [ { ' ~ w _.[ [ [ ;.*.` { [ *.{ [ { [ ` | =.` [ { { { / ) ~ ~ ` =.[ [ ` [ { ` { { / ' } ` / ~ Y.{ [ *.[ ` { [ [ [ ' ( ( ` { [ { [ [ [ ` ` / q l.c x h h b 1 - N A D D F F T ;X;XL > l l g f t 8.' / ~ ( ' [ =.:.{ / / ` { { / ' ^ { ` / ' ' ' ) ~ ^ q Y.,.*.*.[ { [ [ { ' w e ( ' [ | ` ( ^ ( =.[ *.{ ( / _.[ [ ' ~ ~ _.*.[ *.=.*.[ [ *.{ [ [ { [ { [ { { [ [ *.*.[ ` ` [ [ *.[ { ' ' =.=.{ ' [ =.[ =.=.[ { ' _ e ",
"I.` ` / / ~ / ( / / ( w e ^ ~ ~ ~ ~ ( ( ( ^ q q H.` ( ' ` ` ( ( / / ~ / ( ~ ~ _ / ~ ( ~ ~ w ^ w q e w e ^ w ] ~ ~ ) _ w w e w w e e z.] / / / / ~ ~ ( w ) ^ w ^ w ^ _ w _ ( ~ e ^ 9 j.i x l j j 1 1 K L :X:X:XI U 4X=XH a g l x i $.w.` _ e ~ ~ ~ ~ ^ ~ ^ _ q _ ~ w _ e w w ~ ~ e ^ w ^ 0 8 S.` ` / / / ( ( ^ ^ e q e ~ ~ / _ w e e ( ~ ~ ^ e q m.] ( ^ q w F.` / / / / ~ / ( / ( / ( ( ( ( ~ ~ w ~ ~ ~ _ ~ w ^ ^ / ~ ^ w ^ ( ^ ^ ^ ~ ~ ^ ^ / ( ~ w q 9 ",
"s.w ~ w w w w w w w q q 9 q q q q q q q q 9 5 5 r.q ~ w w w w w w w w w q q q q q q w q e q q 9 8 5 8 8 5 8 q w q 9 5 8 8 8 9 9 5 9 r.~ w w w q q q q q q q q q 9 9 9 9 9 9 9 9 9 8 g.y 7 7 7 = > < 1 K F G G G S G A 1 * 7 7 7 p r ] / q q ~ ~ w q q q q q 9 8 9 q 9 9 q 9 q q q 0 q 9 4 5 r.~ ~ w w q q w q q 9 9 9 9 w 9 q 0 9 9 9 q 9 8 8 9 w ~ w q 9 9 w.~ ~ w w w w w w w w q q q q q q q 9 9 9 q 9 9 9 9 q q q q 9 9 q q 9 9 9 8 9 9 q q q q 8 5 "
};
